<svg width="73" height="20" viewBox="0 0 73 20" fill="none" xmlns="http://www.w3.org/2000/svg">
<path d="M9.11019 0.683834H3.55695C3.17707 0.683834 2.85382 0.954027 2.79438 1.32176L0.548435 15.2688C0.509082 15.5161 0.681754 15.7478 0.934338 15.7867C0.95803 15.7903 0.982126 15.7922 1.00662 15.7922H3.65775C4.03803 15.7922 4.36129 15.5213 4.42032 15.1535L5.02628 11.3917C5.08491 11.0243 5.40817 10.7533 5.78805 10.753H7.5461C11.2043 10.753 13.3154 9.01931 13.8667 5.58349C14.1153 4.08032 13.8772 2.89926 13.1588 2.07216C12.3693 1.16405 10.9694 0.683441 9.11099 0.683441L9.11019 0.683834ZM9.75069 5.77778C9.4471 7.72931 7.92437 7.72931 6.45224 7.72931H5.61417L6.20206 4.08465C6.2378 3.86441 6.43135 3.70197 6.65904 3.70197H7.04294C8.04564 3.70197 8.99173 3.70197 9.48043 4.26203C9.77197 4.59593 9.86112 5.09227 9.74988 5.77778H9.75069ZM25.7101 5.71486H23.0509C22.8232 5.71486 22.6293 5.87729 22.5939 6.09753L22.4763 6.82591L22.2903 6.56201C21.7145 5.74357 20.4307 5.47023 19.1493 5.47023C16.2106 5.47023 13.7005 7.65026 13.2118 10.7081C12.9576 12.2333 13.319 13.692 14.2024 14.7091C15.0128 15.6444 16.1725 16.0341 17.5519 16.0341C19.9199 16.0341 21.2326 14.5431 21.2326 14.5431L21.1142 15.2668C21.0736 15.5142 21.2459 15.7466 21.498 15.7859C21.5221 15.7899 21.5462 15.7914 21.5703 15.7914H23.9657C24.3459 15.7914 24.6692 15.5205 24.7282 15.1527L26.1654 6.23833C26.206 5.99213 26.0345 5.76008 25.7831 5.72075C25.7591 5.71682 25.7346 5.71486 25.7101 5.71486ZM22.0032 10.784C21.7466 12.2719 20.5407 13.2708 19.0027 13.2708C18.2305 13.2708 17.6133 13.0282 17.217 12.5684C16.8238 12.1118 16.6745 11.4621 16.7997 10.7384C17.0395 9.26316 18.2655 8.23154 19.7798 8.23154C20.5351 8.23154 21.1487 8.47735 21.5531 8.94105C21.9582 9.40946 22.1189 10.0631 22.0028 10.7836L22.0032 10.784ZM39.8732 5.71486H37.2008C36.945 5.71525 36.7057 5.83953 36.5619 6.0464L32.8764 11.3637L31.3139 6.25406C31.2155 5.93392 30.9147 5.71486 30.5734 5.71486H27.9472C27.6914 5.71407 27.4838 5.91662 27.483 6.16714C27.483 6.21749 27.4914 6.26704 27.5079 6.31463L30.4513 14.7748L27.6841 18.6007C27.536 18.8049 27.585 19.088 27.7934 19.2328C27.8717 19.2874 27.9656 19.3165 28.0616 19.3165H30.7308C30.9838 19.3165 31.2207 19.1958 31.3649 18.9921L40.2531 6.42632C40.3989 6.22063 40.3467 5.93825 40.1367 5.79548C40.0592 5.74278 39.9672 5.71446 39.8728 5.71446L39.8732 5.71486Z" fill="#53918C"/>
<path d="M48.9032 0.684228H43.3492C42.9697 0.684228 42.6464 0.954814 42.5874 1.32215L40.3414 15.2692C40.3017 15.5161 40.4736 15.7478 40.7253 15.7867C40.7494 15.7903 40.7735 15.7922 40.7976 15.7922H43.6479C43.9138 15.7922 44.1394 15.6023 44.1808 15.3455L44.8181 11.3921C44.8767 11.0247 45.2 10.7537 45.5798 10.7533H47.3371C50.9962 10.7533 53.1064 9.01971 53.6585 5.58389C53.9079 4.08072 53.6682 2.89965 52.9498 2.07256C52.1615 1.16444 50.762 0.683835 48.9036 0.683835L48.9032 0.684228ZM49.5437 5.77818C49.2409 7.7297 47.7182 7.7297 46.2452 7.7297H45.408L45.9967 4.08504C46.0316 3.8648 46.2252 3.70237 46.4528 3.70237H46.8367C47.8387 3.70237 48.7855 3.70237 49.2742 4.26242C49.5658 4.59633 49.6541 5.09266 49.5429 5.77818H49.5437ZM65.5023 5.71525H62.8447C62.617 5.71446 62.4231 5.87729 62.3885 6.09792L62.2709 6.82631L62.0842 6.5624C61.5083 5.74396 60.2253 5.47062 58.9439 5.47062C56.0053 5.47062 53.4963 7.65065 53.0072 10.7085C52.7538 12.2337 53.1136 13.6924 53.997 14.7095C54.809 15.6448 55.9671 16.0345 57.3465 16.0345C59.7145 16.0345 61.0272 14.5435 61.0272 14.5435L60.9088 15.2672C60.8682 15.5146 61.0405 15.747 61.2927 15.7863C61.3172 15.7903 61.3421 15.7922 61.3666 15.7918H63.7611C64.141 15.7918 64.4638 15.5209 64.5229 15.1531L65.9609 6.23872C65.9998 5.99095 65.8263 5.7589 65.5734 5.72076C65.5497 5.71722 65.526 5.71525 65.5023 5.71564V5.71525ZM61.7954 10.7844C61.5404 12.2723 60.3329 13.2712 58.7949 13.2712C58.0243 13.2712 57.4055 13.0286 57.0092 12.5688C56.616 12.1122 56.4683 11.4625 56.592 10.7388C56.8333 9.26355 58.0577 8.23194 59.572 8.23194C60.3273 8.23194 60.9409 8.47775 61.3453 8.94144C61.7521 9.40986 61.9127 10.0635 61.795 10.784L61.7954 10.7844ZM68.6373 1.0669L66.358 15.2692C66.3183 15.5161 66.4901 15.7478 66.7419 15.7867C66.766 15.7903 66.7901 15.7922 66.8142 15.7922H69.1055C69.4862 15.7922 69.8095 15.5216 69.8681 15.1535L72.1156 1.20731C72.1554 0.959927 71.9831 0.727883 71.7305 0.688947C71.7069 0.685408 71.6832 0.683441 71.6591 0.683441H69.0931C68.8654 0.684228 68.6722 0.846658 68.6369 1.0669H68.6373Z" fill="#E6F0ED"/>
</svg>
