<svg width="118" height="32" viewBox="0 0 118 32" fill="none" xmlns="http://www.w3.org/2000/svg">
<path d="M5.97497 18.4682C6.08759 18.7344 6.05005 19.1128 6.01251 19.3029C5.89989 19.6832 5.67464 20.0616 4.88816 20.0616C4.17675 20.0616 3.7638 19.6433 3.7638 19.0367V17.9357H0.728607V18.8085C0.728607 21.3908 2.71453 22.1494 4.85061 22.1494C6.9867 22.1494 8.59909 21.4288 8.86 19.5292C9.01016 18.5423 8.89754 17.8977 8.86 17.6315C8.37196 15.2394 4.06225 14.5188 3.7638 13.1516C3.72626 12.9234 3.72626 12.6952 3.7638 12.545C3.83888 12.1647 4.10167 11.7863 4.81307 11.7863C5.48694 11.7863 5.86235 12.2046 5.86235 12.8112V13.5319H8.67229V12.7352C8.67229 10.229 6.46113 9.85059 4.84874 9.85059C2.82527 9.85059 1.17535 10.5332 0.876894 12.3948C0.801812 12.8892 0.801812 13.3436 0.914435 13.9521C1.36493 16.3423 5.41185 16.9888 5.97309 18.4701" fill="#E6F0ED"/>
<path d="M11.9359 21.733L14.0344 10.267H19.0574L21.156 21.733H18.1189L16.5835 11.2919H16.5459L14.9711 21.733H11.9359Z" fill="#E6F0ED"/>
<path d="M36.522 10.267L36.7848 21.733H33.9373L33.8622 11.406H33.7871L31.9138 21.733H29.0269L27.1536 11.406H27.0785L27.0034 21.733H24.156L24.4169 10.267H29.0644L30.4516 19.0367H30.4891L31.9138 10.267H36.522Z" fill="#E6F0ED"/>
<path d="M44.956 18.4111C45.0687 18.6773 45.0311 19.0177 44.9936 19.2459C44.9185 19.6262 44.6557 20.0045 43.9068 20.0045C43.1578 20.0045 42.7824 19.5862 42.7824 18.9796V17.8787H39.7848V18.7515C39.7848 21.2957 41.7707 22.0544 43.8692 22.0544C45.9678 22.0544 47.5802 21.3698 47.8411 19.4721C47.9912 18.4853 47.8786 17.8406 47.8411 17.6125C47.353 15.2204 43.1184 14.5378 42.82 13.2086C42.7449 12.9804 42.7824 12.7523 42.82 12.602C42.895 12.2217 43.1578 11.8433 43.8317 11.8433C44.5055 11.8433 44.881 12.2617 44.881 12.8682V13.5889H47.6909V12.7922C47.6909 10.324 45.4797 9.94565 43.9049 9.94565C41.919 9.94565 40.269 10.5903 39.9706 12.4518C39.8955 12.9462 39.858 13.4007 40.0081 13.9711C40.4192 16.2871 44.3929 16.9317 44.9542 18.413" fill="#E6F0ED"/>
<path d="M54.8907 19.7963C55.6772 19.7963 55.94 19.2639 55.9775 18.9616C56.015 18.8475 56.015 18.6573 56.015 18.5071V10.0778H58.9001V18.317C58.9001 18.5451 58.8625 18.9616 58.8625 19.0757C58.6748 21.2015 56.9892 21.9222 54.8888 21.9222C52.7884 21.9222 51.1403 21.2377 50.9545 19.0757C50.9545 18.9616 50.917 18.5432 50.917 18.317V10.0778H53.802V18.5813C53.802 18.7334 53.802 18.8855 53.8395 19.0376C53.8771 19.2658 54.1023 19.7963 54.8888 19.7963" fill="#E6F0ED"/>
<path d="M71.4186 10.324V21.676H67.3717L64.5993 12.3358H64.5242L64.6743 21.676H61.9001V10.324H66.0971L68.7213 19.3219H68.7588L68.6086 10.324H71.4186Z" fill="#E6F0ED"/>
<path d="M78.4298 19.9304C79.2539 19.9304 79.5166 19.398 79.5917 19.0956C79.6293 18.9815 79.6293 18.7914 79.6293 18.6773V17.0078H78.4674V15.3364H82.4768V18.4111C82.4768 18.6393 82.4768 18.7914 82.4392 19.1698C82.2515 21.2576 80.4533 22.0163 78.4298 22.0163C76.4064 22.0163 74.6438 21.2576 74.4561 19.1698C74.4186 18.7895 74.4186 18.6374 74.4186 18.4111V13.5889C74.4186 13.3988 74.4561 13.0204 74.4561 12.8302C74.7189 10.6663 76.4045 9.98367 78.4298 9.98367C80.4552 9.98367 82.2158 10.6663 82.4017 12.8302C82.4392 13.1725 82.4392 13.5889 82.4392 13.5889V13.9692H79.5917V13.3246C79.5917 13.3246 79.5917 13.0584 79.5542 12.8682C79.5167 12.602 79.2914 12.0335 78.4298 12.0335C77.5683 12.0335 77.3806 12.602 77.3055 12.8682C77.2679 13.0204 77.2679 13.2105 77.2679 13.4007V18.6393C77.2679 18.7914 77.2679 18.9435 77.3055 19.0576C77.3055 19.4379 77.6058 19.9304 78.4298 19.9304Z" fill="#E6F0ED"/>
<path d="M116.816 11.2158C116.44 8.25522 115.391 5.5589 113.555 3.58515C111.607 1.72549 108.945 0.662552 106.023 0.282253C103.213 -0.0980458 101.3 0.0160439 101.3 0.0160439C101.3 0.0160439 99.389 -0.0600159 96.5772 0.282253C93.6547 0.662552 90.993 1.72549 89.0446 3.58515C87.2089 5.5589 86.1596 8.25522 85.7842 11.2158C85.4088 14.0624 85.4839 16 85.4839 16C85.4839 16 85.4088 17.9357 85.7466 20.7842C86.1221 23.7448 87.1713 26.4411 89.0071 28.4149C90.9555 30.2745 93.6171 31.3375 96.5397 31.7178C99.3496 32.098 101.262 31.984 101.262 31.984C101.262 31.984 103.173 32.06 105.985 31.7178C108.908 31.3375 111.569 30.2745 113.518 28.4149C115.353 26.4411 116.403 23.7448 116.778 20.7842C117.153 17.9376 117.041 16 117.041 16C117.041 16 117.191 14.0643 116.816 11.2158Z" fill="#E6F0ED"/>
<path d="M91.3594 11.3299H94.1993C94.6486 11.3299 95.0212 11.406 95.3956 11.5581C95.77 11.7102 96.0677 11.9384 96.3298 12.2027C96.5919 12.467 96.8165 12.7712 96.9644 13.1515C97.1142 13.5318 97.1891 13.9102 97.1891 14.3286C97.1891 14.7469 97.1142 15.1253 96.9644 15.5056C96.8146 15.8859 96.59 16.1901 96.3298 16.4544C96.0695 16.7187 95.7326 16.9488 95.3956 17.099C95.0586 17.2512 94.6486 17.3272 94.1993 17.3272H92.9282V19.7193H91.3949V11.328H91.3575L91.3594 11.3299ZM92.8926 12.7731V15.8479H94.0889C94.3135 15.8479 94.5382 15.8098 94.7235 15.7338C94.9088 15.6577 95.0605 15.5436 95.2103 15.3915C95.36 15.2394 95.4349 15.0873 95.5098 14.8971C95.5847 14.707 95.6221 14.5168 95.6221 14.2905C95.6221 14.0643 95.5847 13.8722 95.5098 13.684C95.4349 13.4938 95.3226 13.3417 95.2103 13.1896C95.0605 13.0374 94.9107 12.9234 94.7235 12.8473C94.5363 12.7712 94.3116 12.7332 94.0889 12.7332H92.8926V12.7712V12.7731ZM100.742 19.7212C100.33 19.7212 99.9579 19.6451 99.546 19.493C99.1716 19.3409 98.7991 19.1127 98.4995 18.8484C98.2 18.5442 97.9398 18.2019 97.7526 17.7855C97.5653 17.369 97.453 16.8747 97.453 16.3422C97.453 15.8098 97.5279 15.3173 97.7151 14.899C97.9023 14.4807 98.1644 14.1403 98.4621 13.8361C98.7597 13.5318 99.1342 13.3417 99.5086 13.1915C99.9204 13.0393 100.293 12.9633 100.742 12.9633C101.192 12.9633 101.602 13.0393 101.939 13.1915C102.313 13.3436 102.611 13.5718 102.873 13.8361V12.9633H104.406V19.7212H102.873V18.7724C102.648 19.0766 102.313 19.3048 101.939 19.493C101.564 19.6451 101.192 19.7212 100.742 19.7212ZM101.004 18.316C101.304 18.316 101.564 18.278 101.789 18.1639C102.013 18.0498 102.238 17.9357 102.423 17.7455C102.609 17.5554 102.723 17.3652 102.835 17.139C102.948 16.9108 102.985 16.6446 102.985 16.3803C102.985 16.116 102.948 15.8479 102.835 15.6216C102.723 15.3934 102.611 15.1652 102.423 15.015C102.236 14.8249 102.049 14.7108 101.789 14.5967C101.527 14.4446 101.265 14.4065 101.004 14.4065C100.744 14.4065 100.48 14.4446 100.22 14.5586C99.9579 14.6727 99.7707 14.7868 99.5853 14.977C99.4 15.1671 99.2484 15.3573 99.1735 15.5835C99.0611 15.8117 99.0237 16.0779 99.0237 16.3422C99.0237 16.6066 99.0611 16.8728 99.1735 17.1009C99.2858 17.3291 99.4356 17.5573 99.5853 17.7474C99.7725 17.9376 99.9972 18.0517 100.22 18.1658C100.445 18.2418 100.707 18.3179 101.004 18.3179M106.536 13.0032L108.405 17.5972L110.123 13.0032H111.731L107.808 22.7978H106.237L107.62 19.4189L104.928 13.0032H106.536Z" fill="#00152E"/>
</svg>
