<svg width="152" height="40" viewBox="0 0 152 40" fill="none" xmlns="http://www.w3.org/2000/svg">
<g opacity="0.9">
<path d="M33.2319 19.9921C33.2319 26.8046 27.7094 32.3271 20.8969 32.3271C14.0845 32.3271 8.56192 26.8046 8.56192 19.9921C8.56192 13.1797 14.0845 7.65714 20.8969 7.65714C27.7094 7.65714 33.2319 13.1797 33.2319 19.9921Z" stroke="#E6F0ED" stroke-width="3"/>
<path d="M25.617 24.7123C23.0719 27.2574 20.2077 28.8981 17.6935 29.5446C15.1416 30.2008 13.2441 29.7837 12.1747 28.7144C11.1054 27.645 10.6883 25.7475 11.3445 23.1956C11.991 20.6815 13.6317 17.8172 16.1768 15.2721C18.7219 12.727 21.5862 11.0863 24.1004 10.4398C26.6523 9.78362 28.5498 10.2007 29.6191 11.27C30.6884 12.3393 31.1055 14.2368 30.4493 16.7887C29.8028 19.3029 28.1621 22.1672 25.617 24.7123Z" stroke="#E6F0ED" stroke-width="3"/>
<path d="M25.6169 15.272C28.162 17.8171 29.8027 20.6814 30.4492 23.1956C31.1054 25.7475 30.6883 27.645 29.619 28.7143C28.5497 29.7836 26.6522 30.2007 24.1003 29.5445C21.5861 28.898 18.7218 27.2573 16.1767 24.7122C13.6316 22.1672 11.9909 19.3029 11.3444 16.7887C10.6882 14.2368 11.1053 12.3393 12.1746 11.27C13.244 10.2007 15.1415 9.78357 17.6934 10.4398C20.2076 11.0863 23.0718 12.727 25.6169 15.272Z" stroke="#E6F0ED" stroke-width="3"/>
<path d="M53.5069 28.5333C57.4319 28.5333 60.0819 26.4833 60.0819 23.2083C60.0819 16.2833 50.8819 19.2333 50.8819 15.5833C50.8819 14.5583 51.8069 13.8583 53.2819 13.8583C54.9569 13.8583 56.0069 14.7583 56.1319 16.1333H59.7069C59.6069 12.8083 57.0569 10.6333 53.2819 10.6333C49.7319 10.6333 47.2319 12.6833 47.2319 15.5833C47.2319 22.4583 56.3069 19.8333 56.3069 23.2583C56.3069 24.5833 55.1819 25.2833 53.5069 25.2833C51.6569 25.2833 50.4819 24.1583 50.3319 22.3833H46.7319C46.8819 26.1083 49.5319 28.5333 53.5069 28.5333Z" fill="#E6F0ED"/>
<path d="M60.9321 33.4333H64.4071V27.2083C65.0821 28.0583 66.3071 28.5333 67.7321 28.5333C71.3571 28.5333 73.8071 25.9583 73.8071 22.0333C73.8071 18.1083 71.5571 15.5333 68.0321 15.5333C66.4071 15.5333 65.1571 16.1333 64.4071 17.1083V15.7333H60.9321V33.4333ZM67.3071 25.5333C65.4321 25.5333 64.2071 24.1333 64.2071 22.0333C64.2071 19.9083 65.4321 18.5083 67.3071 18.5083C69.1321 18.5083 70.3821 19.9083 70.3821 22.0333C70.3821 24.1333 69.1321 25.5333 67.3071 25.5333Z" fill="#E6F0ED"/>
<path d="M74.6479 28.3333H78.1229V21.4333C78.1229 19.8083 79.1979 18.6333 80.7229 18.6333C82.1729 18.6333 83.1729 19.7333 83.1729 21.2583V28.3333H86.6479V20.4833C86.6479 17.5833 84.7979 15.5333 81.9729 15.5333C80.2229 15.5333 78.8479 16.2583 78.1229 17.4833V10.2583H74.6479V28.3333Z" fill="#E6F0ED"/>
<path d="M96.369 24.0583C96.094 25.1333 95.169 25.6833 93.769 25.6833C92.019 25.6833 90.894 24.5833 90.644 22.8083H99.694C99.719 22.5333 99.744 22.1583 99.744 21.6833C99.744 18.8083 97.969 15.5333 93.519 15.5333C89.244 15.5333 87.294 18.8083 87.294 22.0083C87.294 25.1833 89.494 28.5333 93.769 28.5333C96.869 28.5333 99.269 26.7833 99.769 24.0583H96.369ZM93.519 18.0833C95.194 18.0833 96.169 19.2083 96.269 20.6083H90.694C90.994 18.8583 91.944 18.0833 93.519 18.0833Z" fill="#E6F0ED"/>
<path d="M108.858 18.6333V15.7333H107.065C105.54 15.7333 104.59 16.2583 103.915 17.8333V15.7333H100.415V28.3333H103.915V22.2083C103.915 20.0583 104.69 18.6333 106.415 18.6333H108.858Z" fill="#E6F0ED"/>
<path d="M120.858 15.7333H117.358V22.6333C117.358 24.2333 116.283 25.4333 114.758 25.4333C113.333 25.4333 112.333 24.3333 112.333 22.8083V15.7333H108.858V23.5833C108.858 26.4583 110.708 28.5333 113.533 28.5333C115.258 28.5333 116.658 27.7833 117.358 26.5833V28.3333H120.858V15.7333Z" fill="#E6F0ED"/>
<path d="M122.358 28.3333H125.833V10.2583H122.358V28.3333Z" fill="#E6F0ED"/>
<path d="M135.754 24.0583C135.479 25.1333 134.554 25.6833 133.154 25.6833C131.404 25.6833 130.279 24.5833 130.029 22.8083H139.079C139.104 22.5333 139.129 22.1583 139.129 21.6833C139.129 18.8083 137.354 15.5333 132.904 15.5333C128.629 15.5333 126.679 18.8083 126.679 22.0083C126.679 25.1833 128.879 28.5333 133.154 28.5333C136.254 28.5333 138.654 26.7833 139.154 24.0583H135.754ZM132.904 18.0833C134.579 18.0833 135.554 19.2083 135.654 20.6083H130.079C130.379 18.8583 131.329 18.0833 132.904 18.0833Z" fill="#E6F0ED"/>
</g>
</svg>
